<svg width="160" height="179" viewBox="0 0 160 179" fill="none" xmlns="http://www.w3.org/2000/svg">
<path fill-rule="evenodd" clip-rule="evenodd" d="M82.5623 0.492202L119.195 18.8708C120.61 19.5829 121.557 20.9659 121.709 22.5327C121.883 24.343 125.527 67.1375 82.7644 91.3007C82.066 91.7004 81.285 91.898 80.5039 91.898C79.7503 91.898 78.9922 91.7142 78.3122 91.3421C66.4584 84.8963 58.1309 77.0237 52.2934 68.9333L77.2945 80.5881C78.6206 81.2062 80.1407 80.2373 80.1407 78.7739L80.1407 74.2004C80.1407 73.436 79.7049 72.7387 79.0178 72.4039L44.813 55.7377C43.8768 53.5663 43.0835 51.4275 42.4123 49.3457L77.2893 64.0043C78.6096 64.5592 80.069 63.5865 80.0654 62.1541L80.0506 56.2424C80.0486 55.4409 79.5683 54.7185 78.8303 54.4065L39.7025 37.8709C39.3363 35.491 39.1173 33.3035 38.9939 31.3688L77.1746 48.6371C78.4986 49.2359 80 48.2667 80 46.8133L80 40.2828C80 39.5011 79.5445 38.7914 78.8339 38.4659L39.722 20.5507C40.1642 19.8391 40.7993 19.2503 41.5689 18.8616L78.4501 0.483014C79.7457 -0.160236 81.2712 -0.164832 82.5623 0.492202Z" fill="#354590"/>
<path d="M24.8501 126.563H4.75648V151H9.86341V130.763H19.7432V151H24.8501V126.563ZM37.2519 151.346C39.9605 151.346 41.7145 150.165 42.6095 148.458H42.7526V151H47.5732V138.638C47.5732 134.271 43.8743 132.434 39.7935 132.434C35.4025 132.434 32.5149 134.534 31.8109 137.875L36.5122 138.257C36.8582 137.039 37.944 136.145 39.7696 136.145C41.4998 136.145 42.4901 137.016 42.4901 138.519V138.591C42.4901 139.772 41.2373 139.927 38.0514 140.237C34.424 140.571 31.1666 141.788 31.1666 145.881C31.1666 149.508 33.7558 151.346 37.2519 151.346ZM38.7077 147.838C37.1446 147.838 36.0229 147.11 36.0229 145.714C36.0229 144.282 37.2042 143.578 38.994 143.328C40.1037 143.173 41.9174 142.91 42.5259 142.504V144.449C42.5259 146.37 40.939 147.838 38.7077 147.838ZM52.0611 136.67H57.9197V151H62.7642V136.67H68.6705V132.672H52.0611V136.67ZM74.1041 157.873H79.1871V148.065H79.3422C80.0462 149.592 81.5855 151.298 84.5446 151.298C88.7209 151.298 91.9783 147.993 91.9783 141.86C91.9783 135.56 88.5777 132.434 84.5566 132.434C81.49 132.434 80.0224 134.259 79.3422 135.751H79.1155V132.672H74.1041V157.873ZM79.0797 141.836C79.0797 138.567 80.4639 136.479 82.9338 136.479C85.4515 136.479 86.7879 138.662 86.7879 141.836C86.7879 145.034 85.4276 147.253 82.9338 147.253C80.4877 147.253 79.0797 145.106 79.0797 141.836ZM100.234 157.873C104.016 157.873 106.021 155.94 107.059 152.981L114.182 132.696L108.801 132.672L104.971 146.132H104.78L100.985 132.672H95.6399L102.214 151.525L101.916 152.301C101.248 154.019 99.9713 154.102 98.1814 153.553L97.036 157.348C97.7638 157.658 98.9451 157.873 100.234 157.873ZM116.585 151H118.112C122.002 151 124.067 148.423 124.377 142.266L124.663 136.67H129.185V151H134.03V132.672H120.093L119.795 140.786C119.616 145.428 118.9 146.967 117.17 146.967H116.561L116.585 151ZM145.179 138.304V132.672H140.322V151H148.985C153.841 151 156.693 148.458 156.705 144.676C156.693 140.822 153.841 138.304 148.985 138.304H145.179ZM145.179 142.302H148.985C150.691 142.302 151.897 143.304 151.92 144.712C151.897 146.048 150.691 147.003 148.985 147.003H145.179V142.302Z" fill="#354590"/>
<path d="M5.0507 174.19C5.08763 175.354 6.2002 176.148 7.70979 176.148C9.26092 176.148 10.3873 175.317 10.3873 174.024C10.3873 173.138 9.85645 172.418 9.0578 172.362V172.288C9.7318 172.081 10.2396 171.591 10.2396 170.793C10.2396 169.671 9.27939 168.817 7.78365 168.817C6.30638 168.817 5.25382 169.629 5.21689 170.774H6.36178C6.39409 170.188 7.00808 169.777 7.83905 169.777C8.6654 169.777 9.13166 170.197 9.13166 170.83C9.13166 171.42 8.72541 171.864 7.85752 171.864H6.63876V172.842H7.85752C8.72541 172.842 9.27939 173.318 9.27939 174.024C9.27939 174.832 8.56384 175.169 7.69132 175.169C6.83727 175.169 6.26483 174.832 6.21405 174.19H5.0507ZM16.7772 168.909H15.6877V176H16.7772V172.972H20.1749V176H21.2644V168.909H20.1749V171.956H16.7772V168.909ZM29.1108 176.166C30.348 176.166 30.9943 175.501 31.2159 175.04H31.2713V176H32.3608V171.328C32.3608 169.075 30.6434 168.817 29.7386 168.817C28.6676 168.817 27.4488 169.186 26.8949 170.479L27.9289 170.848C28.169 170.331 28.7368 169.777 29.7755 169.777C30.7773 169.777 31.2713 170.308 31.2713 171.217V171.254C31.2713 171.781 30.7358 171.734 29.4431 171.901C28.1275 172.071 26.6917 172.362 26.6917 173.987C26.6917 175.372 27.7628 176.166 29.1108 176.166ZM29.277 175.188C28.4091 175.188 27.7812 174.8 27.7812 174.043C27.7812 173.212 28.5383 172.953 29.3878 172.842C29.8494 172.787 31.0866 172.658 31.2713 172.436V173.433C31.2713 174.32 30.5696 175.188 29.277 175.188ZM39.2088 174.393V168.909H38.1193V176H39.3935L42.7912 170.516V176H43.8807V168.909H42.625L39.2088 174.393ZM41.9048 166.545C41.9048 167.026 41.6463 167.45 41 167.45C40.3537 167.45 40.1136 167.026 40.1136 166.545H39.098C39.098 167.543 39.8366 168.244 41 168.244C42.1818 168.244 42.9204 167.543 42.9204 166.545H41.9048ZM59.9531 176.148C61.5227 176.148 62.5568 175.188 62.7414 173.932H61.6519C61.4488 174.707 60.8025 175.169 59.9531 175.169C58.6605 175.169 57.8295 174.098 57.8295 172.455C57.8295 170.848 58.6789 169.795 59.9531 169.795C60.9133 169.795 61.4857 170.386 61.6519 171.033H62.7414C62.5568 169.703 61.4303 168.817 59.9346 168.817C58.0142 168.817 56.74 170.331 56.74 172.491C56.74 174.615 57.9588 176.148 59.9531 176.148ZM68.1041 176H71.4464C72.8868 176 73.7547 175.188 73.7547 174.098C73.7547 172.985 72.9099 172.385 72.1297 172.27C72.9283 172.104 73.4962 171.656 73.4962 170.793C73.4962 169.662 72.5267 168.909 71.0033 168.909H68.1041V176ZM69.1382 175.003V172.824H71.4464C72.1943 172.824 72.6467 173.272 72.6467 174.006C72.6467 174.624 72.1943 175.003 71.4464 175.003H69.1382ZM69.1382 171.882V169.906H71.0033C71.8758 169.906 72.4067 170.271 72.4067 170.866C72.4067 171.499 71.8758 171.882 71.0033 171.882H69.1382ZM82.0546 176.148C83.9751 176.148 85.2677 174.689 85.2677 172.491C85.2677 170.276 83.9751 168.817 82.0546 168.817C80.1341 168.817 78.8415 170.276 78.8415 172.491C78.8415 174.689 80.1341 176.148 82.0546 176.148ZM82.0546 175.169C80.5958 175.169 79.931 173.913 79.931 172.491C79.931 171.07 80.5958 169.795 82.0546 169.795C83.5134 169.795 84.1782 171.07 84.1782 172.491C84.1782 173.913 83.5134 175.169 82.0546 175.169ZM90.7008 176H91.7902V168.909H90.7008V176ZM89.9252 167.727C90.3499 167.727 90.6638 167.376 90.6638 166.989C90.6638 166.564 90.3499 166.25 89.9252 166.25C89.5374 166.25 89.1866 166.564 89.1866 166.989C89.1866 167.376 89.5374 167.727 89.9252 167.727ZM92.5843 167.727C93.009 167.727 93.3229 167.376 93.3229 166.989C93.3229 166.564 93.009 166.25 92.5843 166.25C92.1965 166.25 91.8456 166.564 91.8456 166.989C91.8456 167.376 92.1965 167.727 92.5843 167.727ZM104.982 176H106.071V169.925H109.469V176H110.559V168.909H104.982V176ZM116.318 178.659H117.408V174.911H117.5C117.74 175.298 118.202 176.148 119.568 176.148C121.341 176.148 122.578 174.726 122.578 172.473C122.578 170.239 121.341 168.817 119.55 168.817C118.165 168.817 117.74 169.666 117.5 170.036H117.371V168.909H116.318V178.659ZM117.389 172.455C117.389 170.866 118.091 169.795 119.421 169.795C120.806 169.795 121.489 170.959 121.489 172.455C121.489 173.969 120.787 175.169 119.421 175.169C118.11 175.169 117.389 174.061 117.389 172.455ZM130.097 176.166C131.334 176.166 131.98 175.501 132.202 175.04H132.257V176H133.347V171.328C133.347 169.075 131.63 168.817 130.725 168.817C129.654 168.817 128.435 169.186 127.881 170.479L128.915 170.848C129.155 170.331 129.723 169.777 130.762 169.777C131.763 169.777 132.257 170.308 132.257 171.217V171.254C132.257 171.781 131.722 171.734 130.429 171.901C129.114 172.071 127.678 172.362 127.678 173.987C127.678 175.372 128.749 176.166 130.097 176.166ZM130.263 175.188C129.395 175.188 128.767 174.8 128.767 174.043C128.767 173.212 129.524 172.953 130.374 172.842C130.836 172.787 132.073 172.658 132.257 172.436V173.433C132.257 174.32 131.556 175.188 130.263 175.188ZM139.105 176H142.448C143.888 176 144.756 175.188 144.756 174.098C144.756 172.985 143.911 172.385 143.131 172.27C143.93 172.104 144.497 171.656 144.497 170.793C144.497 169.662 143.528 168.909 142.005 168.909H139.105V176ZM140.14 175.003V172.824H142.448C143.196 172.824 143.648 173.272 143.648 174.006C143.648 174.624 143.196 175.003 142.448 175.003H140.14ZM140.14 171.882V169.906H142.005C142.877 169.906 143.408 170.271 143.408 170.866C143.408 171.499 142.877 171.882 142.005 171.882H140.14ZM152.262 176.166C153.499 176.166 154.145 175.501 154.367 175.04H154.422V176H155.512V171.328C155.512 169.075 153.795 168.817 152.89 168.817C151.819 168.817 150.6 169.186 150.046 170.479L151.08 170.848C151.32 170.331 151.888 169.777 152.927 169.777C153.928 169.777 154.422 170.308 154.422 171.217V171.254C154.422 171.781 153.887 171.734 152.594 171.901C151.279 172.071 149.843 172.362 149.843 173.987C149.843 175.372 150.914 176.166 152.262 176.166ZM152.428 175.188C151.56 175.188 150.932 174.8 150.932 174.043C150.932 173.212 151.689 172.953 152.539 172.842C153.001 172.787 154.238 172.658 154.422 172.436V173.433C154.422 174.32 153.721 175.188 152.428 175.188Z" fill="#354590"/>
</svg>
